<svg width="15" height="26" viewBox="0 0 15 26" fill="none" xmlns="http://www.w3.org/2000/svg">
<path d="M0.51497 0.508832C0.677122 0.347539 0.869753 0.219571 1.08183 0.132258C1.2939 0.0449438 1.52126 0 1.75087 0C1.98047 0 2.20783 0.0449438 2.4199 0.132258C2.63198 0.219571 2.82461 0.347539 2.98676 0.508832L14.5916 12.023C14.7211 12.1512 14.8238 12.3034 14.8939 12.471C14.9639 12.6387 15 12.8183 15 12.9998C15 13.1813 14.9639 13.361 14.8939 13.5286C14.8238 13.6962 14.7211 13.8485 14.5916 13.9766L2.98676 25.4908C2.30248 26.1697 1.19925 26.1697 0.51497 25.4908C-0.169312 24.8119 -0.169312 23.7173 0.51497 23.0383L10.6256 12.9929L0.501007 2.94745C-0.169309 2.28237 -0.169312 1.17391 0.51497 0.508832Z" fill="#FA7353"/>
</svg>
