<svg width="24" height="24" viewBox="0 0 24 24" fill="none" xmlns="http://www.w3.org/2000/svg">
<g clip-path="url(#clip0_1245_4799)">
<path d="M12 4C17.523 4 22 8.477 22 14C22 19.523 17.523 24 12 24C6.477 24 2 19.523 2 14C2 8.477 6.477 4 12 4ZM12 6C9.87827 6 7.84344 6.84285 6.34315 8.34315C4.84285 9.84344 4 11.8783 4 14C4 16.1217 4.84285 18.1566 6.34315 19.6569C7.84344 21.1571 9.87827 22 12 22C14.1217 22 16.1566 21.1571 17.6569 19.6569C19.1571 18.1566 20 16.1217 20 14C20 11.8783 19.1571 9.84344 17.6569 8.34315C16.1566 6.84285 14.1217 6 12 6ZM14.8 15.857C14.8933 15.7629 15.0044 15.6882 15.1268 15.6374C15.2492 15.5866 15.3804 15.5606 15.513 15.561C15.6455 15.5614 15.7766 15.5881 15.8987 15.6396C16.0208 15.6911 16.1315 15.7663 16.2243 15.8609C16.317 15.9556 16.3901 16.0677 16.4391 16.1908C16.4882 16.3139 16.5123 16.4455 16.5101 16.578C16.5078 16.7105 16.4792 16.8413 16.426 16.9626C16.3728 17.084 16.2959 17.1936 16.2 17.285C15.0796 18.3861 13.5709 19.0022 12 19C10.4291 19.0022 8.92039 18.3861 7.8 17.285C7.61503 17.0984 7.51093 16.8465 7.5102 16.5838C7.50948 16.321 7.61219 16.0685 7.79613 15.8809C7.98006 15.6933 8.23045 15.5856 8.49316 15.5811C8.75586 15.5767 9.00977 15.6758 9.2 15.857C9.94658 16.5916 10.9526 17.0023 12 17C13.09 17 14.077 16.565 14.8 15.857ZM8.5 10C8.89782 10 9.27936 10.158 9.56066 10.4393C9.84196 10.7206 10 11.1022 10 11.5C10 11.8978 9.84196 12.2794 9.56066 12.5607C9.27936 12.842 8.89782 13 8.5 13C8.10218 13 7.72064 12.842 7.43934 12.5607C7.15804 12.2794 7 11.8978 7 11.5C7 11.1022 7.15804 10.7206 7.43934 10.4393C7.72064 10.158 8.10218 10 8.5 10ZM15.5 10C15.8978 10 16.2794 10.158 16.5607 10.4393C16.842 10.7206 17 11.1022 17 11.5C17 11.8978 16.842 12.2794 16.5607 12.5607C16.2794 12.842 15.8978 13 15.5 13C15.1022 13 14.7206 12.842 14.4393 12.5607C14.158 12.2794 14 11.8978 14 11.5C14 11.1022 14.158 10.7206 14.4393 10.4393C14.7206 10.158 15.1022 10 15.5 10Z" fill="#7B778D"/>
</g>
<defs>
<clipPath id="clip0_1245_4799">
<rect width="24" height="24" fill="white"/>
</clipPath>
</defs>
</svg>
