<svg width="15" height="26" viewBox="0 0 15 26" fill="none" xmlns="http://www.w3.org/2000/svg">
<path d="M14.485 0.508832C14.3229 0.347539 14.1302 0.219571 13.9182 0.132258C13.7061 0.0449438 13.4787 0 13.2491 0C13.0195 0 12.7922 0.0449438 12.5801 0.132258C12.368 0.219571 12.1754 0.347539 12.0132 0.508832L0.408396 12.023C0.278936 12.1512 0.176228 12.3034 0.10615 12.471C0.0360717 12.6387 0 12.8183 0 12.9998C0 13.1813 0.0360717 13.361 0.10615 13.5286C0.176228 13.6962 0.278936 13.8485 0.408396 13.9766L12.0132 25.4908C12.6975 26.1697 13.8007 26.1697 14.485 25.4908C15.1693 24.8119 15.1693 23.7173 14.485 23.0383L4.37443 12.9929L14.499 2.94745C15.1693 2.28237 15.1693 1.17391 14.485 0.508832Z" fill="#D9D9D9"/>
</svg>
